<?xml version="1.0" encoding="UTF-8"?>
<svg id="Layer_2" data-name="Layer 2" xmlns="http://www.w3.org/2000/svg" viewBox="0 0 317.8 267.75">
  <defs>
    <style>
      .cls-1 {
        fill: #fff;
      }
    </style>
  </defs>
  <g id="Layer_1-2" data-name="Layer 1">
    <g>
      <path class="cls-1" d="M157.34.12c3.55-.48,5.14.58,7.95,2.36l148.13,108.19c2.96,2.12,4.07,5.01,4.38,8.58v137.79c-.45,5.72-3.28,9.99-9.36,10.32-13.51-.91-28.45,1.15-41.79,0-4.23-.36-6.98-2.34-8.63-6.25-1.63-37.71-.28-75.73-.69-113.55-.35-4.67-4.91-6.98-8.24-9.52-28.47-21.73-58.25-41.92-87.04-63.2-2.1-.74-4.56-.69-6.64.13l-92.03,66.85c-1.99,1.65-3.22,4.09-3.37,6.71l.04,109.96c-.3,4.66-3.78,8.28-8.42,8.86-13.78-.93-29.16,1.23-42.74.02C3.94,266.93.4,263.44,0,258.49V117.81c.1-2.59,1.51-4.99,3.41-6.67C50.84,77.47,96.97,41.95,144.35,8.24c3.17-2.26,9.51-7.65,13-8.12ZM157.84,19.29c-.83.08-1.81.54-2.64.76C111.97,52.21,67.24,82.64,24.35,115.28c-3.13,2.38-7.15,4.51-8.35,8.45-1.03,40.4-1.03,81.26,0,121.65.73,2.58,3.8,5.54,6.45,6.03s11.58.46,14.3.12c3.54-.43,6.29-3.36,7.32-6.6l.09-103.11c.53-6.75,3.69-7.96,8.51-11.65,33.01-25.38,67.91-48.42,100.99-73.73,2.45-1.54,5.74-1.6,8.48-.87l108.81,79.35c1.19,1.6,2.2,3.39,2.22,5.46l.1,103.58c.48,3.04,3.34,6.8,6.47,7.45,2.37.49,12.19.44,14.78.12,3.87-.47,7.37-4.51,7.45-8.39v-117.16c-.16-2.88-1.64-5.45-3.9-7.14L164.62,21.39c-2.01-1.21-4.32-2.35-6.78-2.1Z"/>
      <path class="cls-1" d="M156.85,115.78c2.76-.51,5.03-.05,7.2,1.7,17.29,14.36,38.84,26.25,55.77,40.71,3.4,2.9,4.07,4,4.38,8.58-1.78,29.8,2.3,62.23,0,91.72-.83,10.6-12.73,12.2-15.82,2.34l-.02-87.82c-.05-2.62-1.37-4.67-3.43-6.17-13.92-8.69-27.39-21.97-41.27-30.25-3.31-1.97-5.52-2.44-9.04-.49l-42.72,31.2c-2.13,1.87-2.7,4.43-2.93,7.15v86.87c-2.63,9.01-15.12,7.52-15.36-1.87v-94.6c.05-2.62,1.38-4.65,3.42-6.18,18.91-12.43,36.63-28.22,55.49-40.51,1.33-.87,2.75-2.08,4.34-2.38Z"/>
    </g>
  </g>
</svg>